<svg width="827" height="681" viewBox="0 0 827 681" fill="none" xmlns="http://www.w3.org/2000/svg">
<path d="M162.524 169.484C162.524 144.309 182.933 123.9 208.108 123.9H650.357C675.532 123.9 695.94 144.309 695.94 169.484V576.931H162.524V169.484Z" fill="url(#paint0_linear_268_1897)" fill-opacity="0.7"/>
<g clip-path="url(#clip0_268_1897)">
<path opacity="0.76" fill-rule="evenodd" clip-rule="evenodd" d="M455.876 396.247C455.876 338.187 408.81 291.12 350.749 291.12C292.689 291.12 245.622 338.187 245.622 396.247C245.622 454.308 292.689 501.374 350.749 501.374C408.81 501.374 455.876 454.308 455.876 396.247ZM284.922 396.247C284.922 359.892 314.394 330.42 350.749 330.42C387.105 330.42 416.576 359.892 416.576 396.247C416.576 432.603 387.105 462.075 350.749 462.075C314.394 462.075 284.922 432.603 284.922 396.247Z" fill="url(#paint1_linear_268_1897)"/>
<path opacity="0.76" fill-rule="evenodd" clip-rule="evenodd" d="M382.52 507.098C382.52 490.639 369.177 477.296 352.717 477.296C336.258 477.296 322.915 490.639 322.915 507.098C322.915 523.558 336.258 536.901 352.717 536.901C369.177 536.901 382.52 523.558 382.52 507.098ZM342.565 507.098C342.565 501.492 347.111 496.946 352.717 496.946C358.324 496.946 362.87 501.492 362.87 507.098C362.87 512.705 358.324 517.251 352.717 517.251C347.111 517.251 342.565 512.705 342.565 507.098Z" fill="url(#paint2_linear_268_1897)"/>
<path d="M127.397 434.065C137.707 434.065 146.064 425.708 146.064 415.398C146.064 405.088 137.707 396.73 127.397 396.73C117.087 396.73 108.729 405.088 108.729 415.398C108.729 425.708 117.087 434.065 127.397 434.065Z" fill="url(#paint3_linear_268_1897)"/>
<path d="M188.64 382.32C200.215 382.32 209.6 372.936 209.6 361.36C209.6 349.784 200.215 340.4 188.64 340.4C177.064 340.4 167.68 349.784 167.68 361.36C167.68 372.936 177.064 382.32 188.64 382.32Z" fill="url(#paint4_linear_268_1897)"/>
<g filter="url(#filter0_f_268_1897)">
<path d="M435.572 588.644C447.148 588.644 456.532 579.26 456.532 567.685C456.532 556.109 447.148 546.725 435.572 546.725C423.996 546.725 414.612 556.109 414.612 567.685C414.612 579.26 423.996 588.644 435.572 588.644Z" fill="url(#paint5_linear_268_1897)"/>
</g>
<path d="M462.992 493.821H233.927C227.143 493.821 222.045 489.239 222.045 484.044V363.429C222.045 358.234 227.143 353.651 233.927 353.651H462.992C469.776 353.651 474.874 358.234 474.874 363.429V484.044C474.874 489.239 469.776 493.821 462.992 493.821Z" fill="white" stroke="#E1E4E5" stroke-width="5.78794"/>
<path fill-rule="evenodd" clip-rule="evenodd" d="M242.735 394.251V439.18C242.735 441.619 244.688 443.594 247.099 443.594H273.547L285.091 427.138C285.642 426.353 287.018 426.353 287.569 427.138L291.611 432.901L291.642 432.945L291.67 432.906L300.338 420.32C300.937 419.448 302.44 419.448 303.039 420.32L314.519 436.991V394.251C314.519 391.813 312.561 389.838 310.155 389.838H247.099C244.688 389.838 242.735 391.813 242.735 394.251Z" fill="#0D97AB" fill-opacity="0.14"/>
<path d="M262.979 420.438C258.768 420.438 255.354 417.024 255.354 412.813C255.354 408.602 258.768 405.188 262.979 405.188C267.19 405.188 270.603 408.602 270.603 412.813C270.603 417.024 267.19 420.438 262.979 420.438Z" fill="white"/>
<path d="M474.874 368.87H222.045V365.383C222.045 358.822 227.366 353.501 233.927 353.501H462.992C469.553 353.501 474.874 358.822 474.874 365.383V368.87Z" fill="white" stroke="#E1E4E5" stroke-width="5.78794"/>
<path d="M233.952 364.597C234.703 364.597 235.424 364.298 235.955 363.767C236.487 363.235 236.785 362.515 236.785 361.763C236.785 361.012 236.487 360.291 235.955 359.76C235.424 359.228 234.703 358.93 233.952 358.93C233.2 358.93 232.479 359.228 231.948 359.76C231.417 360.291 231.118 361.012 231.118 361.763C231.118 362.515 231.417 363.235 231.948 363.767C232.479 364.298 233.2 364.597 233.952 364.597ZM245.757 364.597C246.508 364.597 247.229 364.298 247.76 363.767C248.291 363.236 248.59 362.515 248.59 361.764C248.59 361.013 248.291 360.292 247.76 359.761C247.229 359.229 246.508 358.931 245.757 358.931C245.005 358.931 244.285 359.229 243.754 359.761C243.222 360.292 242.924 361.013 242.924 361.764C242.924 362.515 243.222 363.236 243.754 363.767C244.285 364.298 245.005 364.597 245.757 364.597ZM257.089 364.597C257.841 364.597 258.562 364.298 259.093 363.767C259.624 363.235 259.923 362.515 259.923 361.763C259.923 361.012 259.624 360.291 259.093 359.76C258.562 359.228 257.841 358.93 257.089 358.93C256.338 358.93 255.617 359.228 255.086 359.76C254.555 360.291 254.256 361.012 254.256 361.763C254.256 362.515 254.555 363.235 255.086 363.767C255.617 364.298 256.338 364.597 257.089 364.597Z" fill="#E1E4E5"/>
<path d="M449.792 389.838H330.496C327.931 389.838 325.852 391.917 325.852 394.482C325.852 397.048 327.931 399.127 330.496 399.127H449.792C452.357 399.127 454.437 397.048 454.437 394.482C454.437 391.917 452.357 389.838 449.792 389.838Z" fill="#E1E4E5"/>
<path d="M449.792 411.35H330.496C327.931 411.35 325.852 413.429 325.852 415.994C325.852 418.559 327.931 420.639 330.496 420.639H449.792C452.357 420.639 454.437 418.559 454.437 415.994C454.437 413.429 452.357 411.35 449.792 411.35Z" fill="#E1E4E5"/>
<path d="M442.78 432.756H330.12C327.588 432.756 325.535 434.809 325.535 437.341C325.535 439.873 327.588 441.926 330.12 441.926H442.78C445.312 441.926 447.365 439.873 447.365 437.341C447.365 434.809 445.312 432.756 442.78 432.756Z" fill="#E1E4E5"/>
<path d="M449.792 454.374H330.496C327.931 454.374 325.852 456.453 325.852 459.019C325.852 461.584 327.931 463.663 330.496 463.663H449.792C452.357 463.663 454.437 461.584 454.437 459.019C454.437 456.453 452.357 454.374 449.792 454.374Z" fill="#E1E4E5"/>
<path fill-rule="evenodd" clip-rule="evenodd" d="M187.377 559.881C187.762 559.827 188.154 559.85 188.53 559.948C188.906 560.047 189.259 560.219 189.568 560.455C189.877 560.691 190.136 560.986 190.33 561.324C190.524 561.661 190.649 562.033 190.698 562.419L201.004 643.752C201.1 644.51 200.892 645.276 200.424 645.88C199.956 646.485 199.267 646.879 198.509 646.975C197.75 647.072 196.984 646.863 196.38 646.395C195.775 645.928 195.382 645.239 195.285 644.48L184.874 563.161C184.776 562.395 184.984 561.621 185.452 561.007C185.921 560.394 186.612 559.989 187.377 559.881Z" fill="white" stroke="#E1E4E5" stroke-width="5.78794" stroke-linecap="round" stroke-linejoin="round"/>
<path fill-rule="evenodd" clip-rule="evenodd" d="M188.554 559.881C188.169 559.827 187.777 559.85 187.4 559.948C187.024 560.047 186.671 560.219 186.362 560.455C186.053 560.691 185.794 560.987 185.6 561.324C185.406 561.661 185.281 562.033 185.232 562.419L174.926 643.752C174.829 644.51 175.038 645.276 175.506 645.881C175.974 646.485 176.663 646.879 177.422 646.976C178.18 647.072 178.946 646.864 179.55 646.396C180.155 645.928 180.549 645.239 180.645 644.48L191.056 563.161C191.154 562.395 190.946 561.621 190.478 561.008C190.01 560.394 189.318 559.989 188.554 559.881ZM219.666 559.881C220.051 559.827 220.443 559.85 220.82 559.948C221.196 560.047 221.549 560.219 221.858 560.455C222.167 560.691 222.426 560.987 222.62 561.324C222.814 561.661 222.939 562.033 222.988 562.419L233.294 643.752C233.391 644.51 233.182 645.276 232.714 645.881C232.246 646.485 231.557 646.879 230.799 646.976C230.04 647.072 229.274 646.864 228.67 646.396C228.065 645.928 227.671 645.239 227.575 644.48L217.164 563.161C217.066 562.395 217.274 561.621 217.742 561.008C218.21 560.394 218.902 559.989 219.666 559.881ZM154.725 559.881C154.34 559.827 153.948 559.85 153.572 559.948C153.195 560.047 152.842 560.219 152.533 560.455C152.224 560.691 151.965 560.986 151.771 561.324C151.577 561.661 151.452 562.033 151.403 562.419L141.097 643.752C141.001 644.51 141.209 645.276 141.677 645.88C142.145 646.485 142.834 646.879 143.593 646.975C143.968 647.023 144.349 646.997 144.714 646.897C145.08 646.798 145.422 646.627 145.721 646.395C146.326 645.928 146.72 645.239 146.816 644.48L157.227 563.161C157.325 562.395 157.118 561.621 156.649 561.008C156.181 560.394 155.49 559.989 154.725 559.881Z" fill="white" stroke="#E1E4E5" stroke-width="5.78794" stroke-linecap="round" stroke-linejoin="round"/>
<path fill-rule="evenodd" clip-rule="evenodd" d="M226.87 573.232C231.922 573.232 236.019 569.136 236.019 564.083C236.019 559.03 231.922 554.934 226.87 554.934H206.93C191.921 554.934 179.376 543.515 177.969 528.572L174.666 493.493C173.587 482.037 163.97 473.283 152.463 473.283C139.473 473.283 129.232 484.342 130.228 497.294L133.744 542.994C135.056 560.057 149.284 573.232 166.397 573.232H226.87Z" fill="white" stroke="#E1E4E5" stroke-width="5.78794" stroke-linecap="round" stroke-linejoin="round"/>
<path fill-rule="evenodd" clip-rule="evenodd" d="M236.017 563.864C236.016 563.901 236.001 563.938 235.974 563.964C235.947 563.991 235.911 564.006 235.873 564.006H175.614C158.504 564.006 144.277 550.834 142.961 533.775L139.453 488.294C139.373 487.257 139.364 486.217 139.428 485.179C139.817 478.865 145.028 473.685 151.344 473.321C151.776 473.296 152.212 473.283 152.651 473.283C164.128 473.283 173.72 482.012 174.799 493.438L178.102 528.408C179.509 543.314 192.024 554.701 206.995 554.701H226.891C231.931 554.701 236.017 558.787 236.017 563.827V563.864Z" fill="white"/>
<path d="M175.615 562.696H235.874V565.316H175.615V562.696ZM144.268 533.673C145.532 550.051 159.189 562.696 175.615 562.696V565.316C157.821 565.316 143.025 551.617 141.656 533.875L144.268 533.673ZM140.76 488.193L144.268 533.673L141.656 533.875L138.148 488.394L140.76 488.193ZM140.737 485.259C140.677 486.237 140.685 487.217 140.76 488.193L138.148 488.394C138.063 487.297 138.054 486.196 138.122 485.098L140.737 485.259ZM152.652 474.593C152.239 474.593 151.828 474.604 151.42 474.628L151.27 472.012C151.727 471.986 152.189 471.973 152.652 471.973V474.593ZM173.496 493.561C172.481 482.808 163.453 474.593 152.652 474.593V471.973C164.805 471.973 174.962 481.216 176.105 493.314L173.496 493.561ZM176.799 528.531L173.496 493.561L176.105 493.314L179.407 528.285L176.799 528.531ZM206.996 556.011C191.349 556.011 178.27 544.109 176.799 528.531L179.407 528.285C180.751 542.517 192.701 553.391 206.996 553.391V556.011ZM226.892 556.011H206.996V553.391H226.892V556.011ZM234.708 563.826C234.708 559.51 231.209 556.011 226.892 556.011V553.391C232.656 553.391 237.328 558.063 237.328 563.826H234.708ZM234.708 563.858V563.826H237.328V563.868L234.708 563.858ZM138.122 485.098C138.552 478.12 144.293 472.415 151.27 472.012L151.42 474.628C145.766 474.954 141.085 479.609 140.737 485.259L138.122 485.098ZM235.874 562.696C235.232 562.696 234.711 563.215 234.708 563.858L237.328 563.868C237.326 564.253 237.173 564.621 236.9 564.892C236.628 565.163 236.259 565.316 235.874 565.316V562.696Z" fill="#E1E4E5"/>
<path d="M442.938 522.103C443.558 522.103 444.057 521.605 444.067 520.994C444.283 509.204 434.834 504.098 434.429 503.882C434.162 503.743 433.851 503.715 433.564 503.805C433.277 503.895 433.037 504.095 432.897 504.361C432.758 504.627 432.729 504.937 432.817 505.224C432.905 505.511 433.103 505.752 433.367 505.894C433.386 505.903 435.577 507.079 437.692 509.533C440.494 512.776 441.876 516.622 441.791 520.956C441.787 521.256 441.901 521.546 442.109 521.762C442.316 521.979 442.601 522.105 442.901 522.113C442.919 522.103 442.929 522.103 442.938 522.103ZM446.586 492.835C446.586 492.835 459.739 468.023 412.55 450.629C410.116 449.736 407.652 451.88 408.235 454.409C411.215 467.327 420.984 497.527 446.586 492.835Z" fill="#A0BDCA"/>
<path d="M459.534 519.857C459.591 519.857 459.647 519.857 459.694 519.848C459.842 519.826 459.984 519.776 460.112 519.699C460.24 519.623 460.352 519.522 460.441 519.402C460.53 519.283 460.594 519.147 460.631 519.002C460.667 518.857 460.675 518.707 460.653 518.559C457.381 495.985 440.561 485.492 438.662 484.364C438.126 484.045 437.421 484.214 437.101 484.75C436.947 485.007 436.901 485.314 436.973 485.605C437.045 485.896 437.23 486.146 437.486 486.301L437.515 486.31C438.314 486.781 442.507 489.376 447.02 494.434C453.244 501.429 457.08 509.646 458.416 518.87C458.5 519.453 458.98 519.857 459.534 519.857Z" fill="#A0BDCA"/>
<path d="M452.606 519.857H452.662C452.962 519.841 453.244 519.708 453.446 519.487C453.649 519.265 453.756 518.972 453.744 518.672C453.292 509.016 459.422 500.207 459.479 500.112C459.65 499.866 459.718 499.562 459.667 499.267C459.616 498.971 459.45 498.708 459.206 498.533C458.96 498.361 458.656 498.294 458.36 498.345C458.065 498.396 457.801 498.561 457.626 498.806C457.354 499.191 450.989 508.349 451.478 518.775C451.49 519.066 451.614 519.341 451.824 519.543C452.035 519.744 452.315 519.857 452.606 519.857ZM449.353 521.521H449.381C449.53 521.517 449.676 521.484 449.813 521.424C449.949 521.363 450.071 521.276 450.174 521.167C450.276 521.059 450.356 520.931 450.408 520.792C450.461 520.653 450.486 520.504 450.48 520.355L449.512 483.622C449.509 483.473 449.476 483.326 449.415 483.19C449.354 483.053 449.267 482.931 449.159 482.828C449.05 482.726 448.923 482.646 448.783 482.593C448.644 482.541 448.495 482.516 448.346 482.521C448.198 482.525 448.051 482.558 447.915 482.619C447.779 482.679 447.656 482.766 447.553 482.875C447.451 482.983 447.371 483.111 447.319 483.25C447.266 483.39 447.242 483.538 447.247 483.687L448.215 520.411C448.223 520.708 448.347 520.989 448.559 521.197C448.771 521.404 449.056 521.52 449.353 521.521Z" fill="#A0BDCA"/>
<path d="M457.232 500.743C457.232 500.743 483.999 509.252 492.677 459.702C493.129 457.145 490.571 455.115 488.183 456.139C476.008 461.376 448.037 476.391 457.232 500.743ZM439.894 510.276C439.894 510.276 415.835 524.765 395.893 478.582C394.868 476.203 396.88 473.627 399.438 474.069C412.497 476.345 443.185 484.458 439.894 510.276Z" fill="#A0BDCA"/>
<path d="M444.306 496.323C446.168 500.179 451.79 499.755 453.069 495.666C458.776 477.444 468.338 438.821 448.537 434.383C426.33 429.409 433.766 474.53 444.306 496.323Z" fill="#A0BDCA"/>
<path d="M448.872 498.797H448.9C449.063 498.79 449.217 498.719 449.328 498.599C449.439 498.479 449.498 498.32 449.492 498.157L447.405 446.512C447.403 446.431 447.384 446.351 447.35 446.277C447.317 446.204 447.269 446.137 447.209 446.082C447.15 446.027 447.08 445.984 447.004 445.957C446.928 445.929 446.847 445.916 446.766 445.92C446.603 445.926 446.449 445.997 446.338 446.117C446.227 446.237 446.168 446.396 446.173 446.559L448.252 498.204C448.261 498.534 448.533 498.797 448.872 498.797ZM439.226 510.352C439.317 510.352 439.408 510.332 439.491 510.293C439.574 510.254 439.647 510.197 439.705 510.126C439.921 509.863 439.884 509.468 439.621 509.261L411.019 485.85C410.756 485.634 410.361 485.671 410.154 485.935C410.103 485.997 410.064 486.069 410.04 486.146C410.017 486.223 410.009 486.304 410.017 486.385C410.024 486.465 410.048 486.543 410.086 486.615C410.124 486.686 410.176 486.749 410.239 486.8L438.84 510.211C438.948 510.301 439.085 510.351 439.226 510.352Z" fill="#31446C"/>
<path d="M427.029 517.432C423.18 517.432 420.315 520.986 421.132 524.746L421.658 527.125L422.759 532.174L423.276 534.562L423.456 535.386C426.057 547.283 436.592 555.763 448.769 555.763C460.947 555.763 471.482 547.283 474.083 535.386L474.263 534.562L474.78 532.174L475.88 527.125L476.397 524.746C477.219 520.988 474.356 517.432 470.508 517.432H427.029ZM481.059 610.234H415.18C415.08 610.235 414.98 610.216 414.888 610.177C414.795 610.139 414.711 610.083 414.64 610.013C414.569 609.942 414.513 609.858 414.475 609.765C414.437 609.673 414.418 609.573 414.418 609.473V605.656C414.418 605.233 414.757 604.894 415.18 604.894H481.069C481.492 604.894 481.83 605.233 481.83 605.656V609.473C481.828 609.676 481.745 609.869 481.601 610.012C481.457 610.154 481.262 610.234 481.059 610.234Z" fill="white" stroke="#E1E4E5" stroke-width="5.78794" stroke-linecap="round" stroke-linejoin="round"/>
<path d="M432.795 557.019C435.937 557.019 438.18 560.064 437.246 563.064L411.697 645.424C411.497 646.061 411.061 646.597 410.478 646.922C409.896 647.247 409.21 647.337 408.564 647.172C407.917 647.007 407.358 646.601 407.002 646.036C406.646 645.472 406.52 644.792 406.649 644.138L422.589 564.785L423.039 562.542C423.352 560.984 424.195 559.583 425.425 558.576C426.654 557.569 428.194 557.019 429.783 557.019H432.795ZM489.882 644.138C490.015 644.794 489.891 645.476 489.535 646.043C489.179 646.61 488.619 647.018 487.97 647.183C487.322 647.349 486.634 647.258 486.051 646.931C485.467 646.603 485.031 646.064 484.834 645.424L458.505 560.573C457.959 558.808 459.278 557.019 461.125 557.019H470.453C471.571 557.019 472.534 557.805 472.758 558.899L489.882 644.138Z" fill="white" stroke="#E1E4E5" stroke-width="5.78794" stroke-linecap="round" stroke-linejoin="round"/>
<path d="M417.809 556.078H479.003C480.022 556.078 480.843 557.182 480.843 558.549V568.649C480.843 570.017 480.022 571.121 479.003 571.121H417.809C416.791 571.121 415.97 570.017 415.97 568.649V558.549C415.97 557.182 416.791 556.078 417.809 556.078Z" fill="white" stroke="#E1E4E5" stroke-width="5.78794" stroke-linecap="round" stroke-linejoin="round"/>
<path fill-rule="evenodd" clip-rule="evenodd" d="M242.303 615.849C242.303 615.849 237.207 626.143 241.384 629.386C245.568 632.631 256.621 638.71 256.621 638.71L227.34 636.87L233.849 614.421L242.303 615.849Z" fill="#F8AE9D"/>
<path fill-rule="evenodd" clip-rule="evenodd" d="M230.24 625.163C231.162 625.603 229.647 629.738 232.889 629.448C236.13 629.158 238.165 624.883 240.555 625.161C242.946 625.438 244.463 629.742 249.014 632.741C253.565 635.74 260.312 639.316 259.86 642.332C259.408 645.347 248.79 646.155 243.411 645.156C238.032 644.159 235.521 641.997 232.031 642.169C228.542 642.341 226.349 641.914 225.254 639.673C224.161 637.432 229.177 624.655 230.24 625.163ZM198.194 525.125C207.058 525.521 256.397 536.434 265.36 538.288C274.325 540.142 281.903 550.174 275.067 561.79C267.39 574.83 247.582 611.863 242.772 620.212C240.392 624.344 228.382 622.027 231.204 615.092C236.462 602.163 238.904 569.685 252.311 557.843C252.311 557.843 207.223 565.69 187.748 556.701C173.593 550.168 176.795 524.168 198.194 525.125Z" fill="#31446C"/>
<path fill-rule="evenodd" clip-rule="evenodd" d="M260.033 469.792C260.033 469.792 259.933 464.522 262.456 460.752C264.979 456.983 265.079 452.979 266.989 453.11C268.899 453.241 267.008 462.547 267.008 462.547C267.008 462.547 269.431 461.622 271.171 460.451C272.912 459.28 278.189 453.508 279.423 454.531C281.514 456.274 278.145 466.104 276.311 468.07C274.471 470.035 265.387 475.529 265.387 475.529L238.637 502.478L234.638 488.172L260.033 469.792Z" fill="#F8AE9D"/>
<path fill-rule="evenodd" clip-rule="evenodd" d="M206.528 467.412C210.652 476.976 218.202 494.546 221.315 499.788C225.215 506.353 231.366 509.245 238.569 504.375C240.075 503.355 244.403 499.791 244.403 499.791C243.763 493.552 241.432 488.337 237.413 484.144L234.685 486.402C234.685 486.402 226.946 466.564 220.721 455.072C215.329 445.129 200.251 452.872 206.528 467.412ZM188.706 430.287V438.75L182.491 433.746C182.491 433.746 180.581 425.637 179.027 419.615C178.053 415.839 175.679 403.058 185.235 403.656C193.063 389.857 215.861 398.398 216.042 415.256C216.26 435.532 216.082 443.427 216.082 443.427C203.19 444.167 195.934 442.303 188.706 430.287Z" fill="#31446C"/>
<path fill-rule="evenodd" clip-rule="evenodd" d="M182.356 446.4C182.356 446.4 188.138 445.043 188.339 435.57C188.539 426.097 188.398 422.864 188.398 422.864L201.133 422.634C201.133 422.634 201.271 433.192 201.273 437.01C201.279 446.295 208.107 447.056 208.107 447.056C208.107 447.056 206.94 454.717 195.401 455.365C186.391 455.873 182.356 446.4 182.356 446.4Z" fill="#F8AE9D"/>
<path fill-rule="evenodd" clip-rule="evenodd" d="M185.431 418.133C179.75 417.913 180.676 426.229 186.577 426.218C186.577 426.218 190.005 438.032 201.905 438.032C211.57 438.032 212.198 424.263 212.286 421.516C212.38 418.587 212.392 408.966 212.392 408.966L185.209 408.953L185.431 418.133Z" fill="#F8AE9D"/>
<path fill-rule="evenodd" clip-rule="evenodd" d="M184.989 418.08C187.343 418.467 187.058 420.026 187.698 419.89C190.948 419.199 204.107 420.111 205.801 412.875C207.909 417.395 208.424 418.507 213.066 419.72V406.474L183.706 403.657C183.706 403.657 184.161 417.942 184.989 418.08Z" fill="#31446C"/>
<path fill-rule="evenodd" clip-rule="evenodd" d="M183.647 445.432C190.903 449.875 199.291 451.504 207.098 446.679C219.841 471.804 223.016 501.781 219.951 534.914C201.371 542.27 185.754 540.823 172.46 532.415L183.647 445.432Z" fill="white"/>
<path fill-rule="evenodd" clip-rule="evenodd" d="M274.063 616.263C274.063 616.263 273.909 628.378 283.892 632.907C293.869 637.437 300.977 637.164 300.072 640.666C299.168 644.167 273.199 644.025 270.774 641.287C268.707 638.958 264.213 617.265 262.975 618.923L274.063 616.263Z" fill="#F8AE9D"/>
<path fill-rule="evenodd" clip-rule="evenodd" d="M266.813 633.372C268.342 632.271 269.628 638.62 273.784 636.854C277.94 635.089 274.663 629.254 277.278 628.178C279.894 627.101 284.944 632.888 291.651 634.294C298.358 635.7 303.804 636.93 305.351 639.54C306.684 641.785 305.351 642.502 305.351 642.502C305.351 642.502 298.894 645.726 294.882 646.436C289.054 647.467 272.208 648.154 270.362 646.274C269.229 645.12 266.048 633.923 266.813 633.372ZM170.417 521.381C170.417 521.381 157.529 548.598 175.641 557.944C193.155 566.982 245.59 556.292 245.59 556.292C245.59 556.292 244.653 563.836 245.59 570.564C248.037 588.136 259.675 617.411 262.138 621.09C265.543 626.177 275.916 622.34 276.111 618.104C276.306 613.869 268.292 559.772 267.073 549.456C265.86 539.139 262.032 537.641 250.851 534.821C248.282 534.173 217.906 526.624 215.123 526.844C191.214 528.735 170.417 521.381 170.417 521.381Z" fill="#31446C"/>
<path fill-rule="evenodd" clip-rule="evenodd" d="M183.964 445.452C195.98 484.814 203.186 540.619 165.659 530.911C185.593 494.207 158.493 477.687 164.635 458.718C166.735 452.232 183.807 444.943 183.964 445.452ZM206.462 446.403C211.047 457.904 213.251 466.928 215.307 483.809C217.023 497.869 216.164 526.883 216.164 526.883L221.831 527.997C221.831 527.997 225.882 483.173 224.528 477.401C222.255 467.716 220.715 462.057 217.714 453.204C216.061 448.344 206.462 446.403 206.462 446.403Z" fill="#31446C"/>
<path fill-rule="evenodd" clip-rule="evenodd" d="M186.489 490.138C186.489 490.138 193.888 482.729 196.45 481.869C199.012 481.01 213.048 479.977 212.953 481.92C212.845 484.001 203.814 483.882 202.978 484.905C202.143 485.928 200.982 493.898 197.825 494.684C194.674 495.47 188.143 497.796 188.143 497.796L159.071 512.817L162.169 497.796L186.489 490.138Z" fill="#F8AE9D"/>
<path fill-rule="evenodd" clip-rule="evenodd" d="M164.221 458.772C155.403 471.218 147.874 490.175 144.984 497.566C142.094 504.958 145.01 516.106 157.717 513.917C159.23 513.657 161.692 512.699 161.692 512.699C166.364 506.294 167.184 500.795 165.44 495.899L163.796 496.592C163.796 496.592 176.427 474.204 179.511 468.203C184.663 458.18 171.989 447.806 164.221 458.772Z" fill="#31446C"/>
<path d="M200.745 645.738C201.802 645.737 202.828 645.377 203.653 644.716C204.478 644.054 205.053 643.132 205.284 642.1L230.348 529.669C230.996 526.762 228.784 524.003 225.806 524.003C224.748 524.003 223.721 524.363 222.895 525.025C222.069 525.687 221.494 526.611 221.264 527.644L196.206 640.076C195.559 642.981 197.769 645.738 200.745 645.738ZM395.213 645.738C394.156 645.738 393.13 645.377 392.305 644.716C391.48 644.055 390.905 643.132 390.675 642.1L365.609 529.664C364.961 526.76 367.171 524.003 370.147 524.003C371.205 524.003 372.23 524.363 373.055 525.025C373.88 525.686 374.455 526.609 374.686 527.641L399.752 640.076C400.399 642.981 398.189 645.738 395.213 645.738Z" fill="white" stroke="#E1E4E5" stroke-width="5.78794" stroke-linecap="round" stroke-linejoin="round"/>
<path fill-rule="evenodd" clip-rule="evenodd" d="M395.88 524.21V519.982C395.88 517.555 394.64 515.588 393.117 515.576H201.113C199.582 515.576 198.351 517.555 198.351 519.982V524.21C198.351 526.649 199.59 528.616 201.113 528.616H207.213C207.82 528.616 208.421 528.735 208.981 528.967C209.541 529.199 210.051 529.539 210.479 529.968C210.908 530.397 211.249 530.906 211.481 531.467C211.713 532.027 211.832 532.628 211.832 533.234C211.832 534.007 212.461 534.629 213.237 534.629H386.063C386.831 534.629 387.46 534.007 387.46 533.234C387.46 532.628 387.579 532.027 387.811 531.467C388.043 530.906 388.384 530.397 388.813 529.968C389.241 529.539 389.751 529.199 390.311 528.967C390.871 528.735 391.472 528.616 392.079 528.616H393.117C394.649 528.616 395.88 526.649 395.88 524.21Z" fill="white"/>
<path d="M393.119 515.576L393.129 514.266H393.119V515.576ZM394.572 519.981V524.21H397.192V519.981H394.572ZM393.108 516.886C393.264 516.887 393.6 516.994 393.962 517.569C394.312 518.127 394.572 518.976 394.572 519.981H397.192C397.192 518.559 396.831 517.211 396.181 516.176C395.542 515.158 394.496 514.276 393.129 514.266L393.108 516.886ZM201.115 516.886H393.119V514.266H201.115V516.886ZM199.662 519.981C199.662 518.974 199.92 518.122 200.27 517.563C200.63 516.986 200.962 516.886 201.115 516.886V514.266C199.735 514.266 198.687 515.154 198.048 516.174C197.4 517.21 197.042 518.561 197.042 519.981H199.662ZM199.662 524.21V519.981H197.042V524.21H199.662ZM201.115 527.305C200.965 527.305 200.632 527.205 200.271 526.63C199.921 526.073 199.662 525.222 199.662 524.21H197.042C197.042 525.636 197.402 526.987 198.053 528.024C198.693 529.042 199.741 529.925 201.115 529.925V527.305ZM207.215 527.305H201.115V529.925H207.215V527.305ZM213.238 533.319C213.176 533.319 213.144 533.274 213.144 533.234H210.524C210.524 534.74 211.749 535.939 213.238 535.939V533.319ZM386.064 533.319H213.238V535.939H386.064V533.319ZM386.151 533.234C386.151 533.278 386.114 533.319 386.064 533.319V535.939C386.782 535.939 387.47 535.654 387.978 535.147C388.485 534.639 388.771 533.951 388.771 533.234H386.151ZM393.119 527.305H392.08V529.925H393.119V527.305ZM394.572 524.21C394.572 525.223 394.313 526.075 393.964 526.631C393.606 527.203 393.274 527.305 393.119 527.305V529.925C394.495 529.925 395.544 529.044 396.184 528.023C396.835 526.986 397.192 525.634 397.192 524.21H394.572ZM388.771 533.234C388.771 532.799 388.857 532.369 389.023 531.967C389.189 531.566 389.433 531.201 389.74 530.894C390.047 530.587 390.412 530.343 390.814 530.177C391.215 530.011 391.645 529.925 392.08 529.925V527.305C390.508 527.305 389 527.93 387.888 529.042C386.776 530.153 386.151 531.661 386.151 533.234H388.771ZM207.215 529.925C207.649 529.925 208.08 530.011 208.481 530.177C208.882 530.343 209.247 530.587 209.555 530.894C209.862 531.201 210.106 531.566 210.272 531.967C210.438 532.369 210.524 532.799 210.524 533.234H213.144C213.144 531.661 212.519 530.153 211.407 529.042C210.295 527.93 208.787 527.305 207.215 527.305V529.925Z" fill="#E1E4E5"/>
<path d="M109.798 460.437C107.761 460.437 106.11 458.786 106.11 456.749C106.11 454.712 107.761 453.061 109.798 453.061C111.835 453.061 113.486 454.712 113.486 456.749C113.486 458.786 111.835 460.437 109.798 460.437Z" fill="#666AF6"/>
<path d="M111.323 534.17C111.792 535.918 110.754 537.715 109.006 538.184C107.258 538.652 105.461 537.615 104.993 535.866C104.524 534.118 105.562 532.321 107.31 531.853C109.058 531.385 110.855 532.422 111.323 534.17Z" fill="#E1E4E5"/>
<path d="M158.939 391.038C156.531 391.038 154.58 389.087 154.58 386.679C154.58 384.272 156.531 382.32 158.939 382.32C161.346 382.32 163.298 384.272 163.298 386.679C163.298 389.087 161.346 391.038 158.939 391.038Z" fill="#E1E4E5"/>
<path d="M500.899 439.968C500.899 442.039 499.22 443.717 497.15 443.717C495.079 443.717 493.4 442.039 493.4 439.968C493.4 437.897 495.079 436.219 497.15 436.219C499.22 436.219 500.899 437.897 500.899 439.968Z" fill="#E1E4E5"/>
<path d="M137.83 365.945H137.921C138.456 373.433 144.099 373.549 144.099 373.549C144.099 373.549 137.877 373.668 137.877 382.32C137.877 373.668 131.654 373.549 131.654 373.549C131.654 373.549 137.295 373.433 137.83 365.945Z" fill="#E1E4E5"/>
</g>
<g filter="url(#filter1_d_268_1897)">
<circle cx="710.364" cy="539.528" r="44.8301" fill="white"/>
</g>
<path fill-rule="evenodd" clip-rule="evenodd" d="M702.477 524.737C702.477 522.015 704.685 519.808 707.407 519.808H713.323C716.046 519.808 718.253 522.015 718.253 524.737V525.723H730.085C731.174 525.723 732.057 526.606 732.057 527.695V541.499C732.057 542.493 731.316 543.332 730.329 543.456L730.085 543.486V557.275C730.085 558.364 729.202 559.247 728.113 559.247H692.618C691.529 559.247 690.646 558.364 690.646 557.275V543.486L690.401 543.456C689.414 543.332 688.674 542.493 688.674 541.499V527.695C688.674 526.606 689.557 525.723 690.646 525.723H702.477V524.737ZM694.59 543.979V555.303H726.141V543.979L716.281 545.212V548.401C716.281 549.49 715.398 550.373 714.309 550.373H706.421C705.332 550.373 704.449 549.49 704.449 548.401V545.212L694.59 543.979ZM714.309 524.737V525.723H706.421V524.737C706.421 524.193 706.863 523.752 707.407 523.752H713.323C713.868 523.752 714.309 524.193 714.309 524.737ZM692.618 529.667H704.449H716.281H728.113V539.758L716.281 541.237V538.541C716.281 537.452 715.398 536.569 714.309 536.569H706.421C705.332 536.569 704.449 537.452 704.449 538.541V541.237L692.618 539.758V529.667ZM712.337 543.44C712.337 543.459 712.337 543.478 712.337 543.497V546.429H708.393V543.497L708.393 543.473L708.393 543.44V540.513H712.337V543.44Z" fill="url(#paint6_linear_268_1897)"/>
<g filter="url(#filter2_d_268_1897)">
<circle cx="413.416" cy="142.191" r="44.8301" fill="white"/>
</g>
<path d="M435.046 122.113C435.049 122.019 435.033 121.926 434.998 121.839C434.964 121.751 434.912 121.672 434.846 121.605C434.78 121.539 434.701 121.487 434.614 121.452C434.527 121.416 434.434 121.399 434.34 121.402H392.764C392.67 121.399 392.577 121.416 392.49 121.452C392.403 121.487 392.324 121.539 392.258 121.606C392.192 121.672 392.14 121.751 392.106 121.839C392.072 121.926 392.055 122.019 392.058 122.113V155.29C392.055 155.385 392.07 155.48 392.104 155.569C392.138 155.658 392.189 155.739 392.255 155.808C392.321 155.877 392.4 155.933 392.487 155.971C392.574 156.009 392.668 156.029 392.764 156.031H407.072L405.647 161.083H403.124C402.929 161.083 402.742 161.16 402.604 161.298C402.466 161.436 402.389 161.623 402.389 161.818C402.389 162.013 402.466 162.199 402.604 162.337C402.742 162.475 402.929 162.553 403.124 162.553H423.981C424.176 162.553 424.362 162.475 424.5 162.337C424.638 162.199 424.715 162.013 424.715 161.818C424.715 161.623 424.638 161.436 424.5 161.298C424.362 161.16 424.176 161.083 423.981 161.083H421.458L420.033 156.031H434.34C434.436 156.029 434.53 156.009 434.617 155.971C434.704 155.933 434.783 155.878 434.849 155.808C434.915 155.739 434.966 155.658 435 155.569C435.034 155.48 435.049 155.385 435.046 155.29V149.135V147.666V122.113ZM393.528 122.871H433.576V147.672H393.528V122.871ZM419.931 161.083H407.173L408.598 156.031H418.506L419.931 161.083ZM433.576 154.561H393.528V149.142H433.576V154.561Z" fill="url(#paint7_linear_268_1897)"/>
<path d="M425.562 129.026H425.566L421.371 124.811L421.372 124.822C421.303 124.755 421.222 124.702 421.133 124.667C421.044 124.632 420.949 124.615 420.853 124.617H409.575C409.482 124.613 409.389 124.628 409.302 124.662C409.215 124.695 409.136 124.746 409.07 124.812C409.004 124.877 408.951 124.955 408.917 125.041C408.882 125.128 408.865 125.22 408.867 125.313V145.525C408.867 145.931 409.169 146.295 409.575 146.295H425.051C425.456 146.295 425.769 145.931 425.769 145.525V129.51C425.774 129.419 425.759 129.328 425.723 129.244C425.687 129.159 425.632 129.085 425.562 129.026ZM421.543 127.088L423.277 128.75H421.543V127.088ZM424.299 144.825H410.337V126.086H420.074V129.51C420.074 129.916 420.448 130.22 420.853 130.22H424.299V144.825Z" fill="url(#paint8_linear_268_1897)"/>
<path d="M413.321 134.537H417.343C417.537 134.537 417.724 134.459 417.862 134.322C418 134.184 418.077 133.997 418.077 133.802C418.077 133.607 418 133.42 417.862 133.282C417.724 133.145 417.537 133.067 417.343 133.067H413.321C413.126 133.067 412.939 133.145 412.801 133.282C412.663 133.42 412.586 133.607 412.586 133.802C412.586 133.997 412.663 134.184 412.801 134.322C412.939 134.459 413.126 134.537 413.321 134.537ZM412.586 136.19C412.586 136.385 412.663 136.572 412.801 136.71C412.939 136.848 413.126 136.925 413.321 136.925H421.305C421.5 136.925 421.686 136.848 421.824 136.71C421.962 136.572 422.04 136.385 422.04 136.19C422.04 135.995 421.962 135.808 421.824 135.671C421.686 135.533 421.5 135.455 421.305 135.455H413.321C413.126 135.455 412.939 135.533 412.801 135.671C412.663 135.808 412.586 135.995 412.586 136.19ZM421.305 137.844H413.321C413.126 137.844 412.939 137.921 412.801 138.059C412.663 138.197 412.586 138.384 412.586 138.578C412.586 138.773 412.663 138.96 412.801 139.098C412.939 139.236 413.126 139.313 413.321 139.313H421.305C421.5 139.313 421.686 139.236 421.824 139.098C421.962 138.96 422.04 138.773 422.04 138.578C422.04 138.384 421.962 138.197 421.824 138.059C421.686 137.921 421.5 137.844 421.305 137.844ZM421.305 140.232H413.321C413.126 140.232 412.939 140.309 412.801 140.447C412.663 140.585 412.586 140.772 412.586 140.967C412.586 141.162 412.663 141.349 412.801 141.486C412.939 141.624 413.126 141.702 413.321 141.702H421.305C421.5 141.702 421.686 141.624 421.824 141.486C421.962 141.349 422.04 141.162 422.04 140.967C422.04 140.772 421.962 140.585 421.824 140.447C421.686 140.309 421.5 140.232 421.305 140.232ZM405.104 125.368C405.038 125.261 404.946 125.173 404.837 125.112C404.727 125.051 404.604 125.019 404.478 125.019C404.353 125.019 404.229 125.051 404.12 125.112C404.01 125.173 403.918 125.261 403.852 125.368L401.427 129.31C401.356 129.426 401.318 129.56 401.318 129.696L401.335 143.12C401.335 143.953 401.667 144.753 402.256 145.342C402.846 145.932 403.645 146.263 404.479 146.263C405.312 146.263 406.112 145.932 406.701 145.342C407.291 144.753 407.622 143.953 407.622 143.12L407.638 129.696C407.638 129.56 407.6 129.426 407.529 129.31L405.104 125.368ZM404.478 127.129L405.588 128.934H403.368L404.478 127.129ZM402.789 130.403H406.167L406.155 140.232H402.801L402.789 130.403ZM404.478 144.79C404.034 144.787 403.608 144.608 403.295 144.292C402.982 143.977 402.806 143.55 402.805 143.106L402.803 141.702H406.153L406.152 143.106C406.151 143.551 405.975 143.977 405.662 144.292C405.348 144.608 404.923 144.787 404.478 144.79Z" fill="url(#paint9_linear_268_1897)"/>
<g filter="url(#filter3_d_268_1897)">
<circle cx="685.14" cy="260.31" r="44.8301" fill="white"/>
</g>
<g clip-path="url(#clip1_268_1897)">
<g clip-path="url(#clip2_268_1897)">
<mask id="mask0_268_1897" style="mask-type:luminance" maskUnits="userSpaceOnUse" x="658" y="233" width="55" height="55">
<path d="M712.889 233.582H658.759V287.713H712.889V233.582Z" fill="white"/>
</mask>
<g mask="url(#mask0_268_1897)">
<path fill-rule="evenodd" clip-rule="evenodd" d="M685.959 236C682.569 236 679.818 238.751 679.818 242.141C679.818 245.531 682.569 248.282 685.959 248.282C689.349 248.282 692.1 245.531 692.1 242.141C692.1 238.751 689.349 236 685.959 236ZM685.959 239.07C687.654 239.07 689.03 240.446 689.03 242.141C689.03 243.836 687.654 245.212 685.959 245.212C684.264 245.212 682.888 243.836 682.888 242.141C682.888 240.446 684.264 239.07 685.959 239.07Z" fill="url(#paint10_linear_268_1897)"/>
<path fill-rule="evenodd" clip-rule="evenodd" d="M687.494 267.628C687.494 266.986 687.095 266.412 686.493 266.188L675.746 262.197C675.275 262.022 674.748 262.088 674.335 262.375C673.922 262.662 673.677 263.133 673.677 263.636V279.603C673.677 280.245 674.076 280.819 674.678 281.042L685.425 285.034C685.896 285.209 686.423 285.143 686.836 284.855C687.249 284.569 687.494 284.097 687.494 283.595V267.628ZM676.747 278.535L684.424 281.387V268.695L676.747 265.843V278.535Z" fill="url(#paint11_linear_268_1897)"/>
<path fill-rule="evenodd" clip-rule="evenodd" d="M685.425 266.188C684.823 266.412 684.423 266.986 684.423 267.628V283.595C684.423 284.097 684.669 284.569 685.082 284.855C685.495 285.143 686.022 285.209 686.493 285.034L697.24 281.042C697.842 280.819 698.241 280.245 698.241 279.603V263.636C698.241 263.133 697.996 262.662 697.583 262.375C697.17 262.088 696.643 262.022 696.172 262.197L685.425 266.188ZM687.494 268.695V281.387L695.171 278.535V265.843L687.494 268.695Z" fill="url(#paint12_linear_268_1897)"/>
<path fill-rule="evenodd" clip-rule="evenodd" d="M669.898 265.169H675.212C676.059 265.169 676.747 265.858 676.747 266.706C676.747 267.553 676.059 268.242 675.212 268.242H667.535C667.015 268.242 666.531 267.977 666.249 267.542C665.965 267.106 665.922 266.556 666.132 266.081L672.273 252.264C672.52 251.709 673.07 251.352 673.676 251.352H685.959C686.806 251.352 687.494 252.04 687.494 252.888C687.494 253.735 686.806 254.424 685.959 254.424H674.674L669.898 265.169Z" fill="url(#paint13_linear_268_1897)"/>
<path fill-rule="evenodd" clip-rule="evenodd" d="M697.244 254.424H685.959C685.112 254.424 684.424 253.735 684.424 252.888C684.424 252.04 685.112 251.352 685.959 251.352H698.242C698.848 251.352 699.398 251.709 699.645 252.264L705.786 266.081C705.996 266.556 705.953 267.106 705.669 267.542C705.387 267.977 704.903 268.242 704.383 268.242H696.706C695.859 268.242 695.171 267.553 695.171 266.706C695.171 265.858 695.859 265.169 696.706 265.169H702.02L697.244 254.424Z" fill="url(#paint14_linear_268_1897)"/>
</g>
</g>
</g>
<path d="M347.936 136.062L352.318 142.626L356.524 135.559L348.665 134.838L347.936 136.062ZM343.502 52.7873V52.075H343.444L343.387 52.0843L343.502 52.7873ZM288.034 76.0584L287.425 76.4279L287.472 76.5057L287.537 76.5691L288.034 76.0584ZM691.593 258.161L692.161 257.732L692.147 257.714L692.133 257.697L691.593 258.161ZM768.069 543.325L775.386 547.081L774.981 538.867L768.069 543.325ZM342.095 128.286C339.78 125.704 337.501 122.781 335.343 119.622L334.167 120.425C336.357 123.631 338.674 126.604 341.034 129.237L342.095 128.286ZM329.666 110.204C327.95 106.957 326.408 103.595 325.107 100.202L323.777 100.711C325.1 104.162 326.666 107.576 328.407 110.87L329.666 110.204ZM321.927 89.7076C321.117 85.9856 320.687 82.3384 320.721 78.8757L319.297 78.8617C319.262 82.4498 319.707 86.2046 320.536 90.0106L321.927 89.7076ZM322.619 68.2952C323.92 64.9904 325.933 62.0675 328.788 59.6748L327.873 58.5831C324.825 61.1379 322.677 64.2613 321.293 67.7731L322.619 68.2952ZM338.279 54.718C339.921 54.2157 341.698 53.8034 343.616 53.4902L343.387 52.0843C341.41 52.4069 339.571 52.8332 337.862 53.3559L338.279 54.718ZM343.502 53.4995C345.356 53.4995 347.111 53.589 348.77 53.7599L348.916 52.3429C347.206 52.1667 345.401 52.075 343.502 52.075V53.4995ZM358.953 56.2296C362.508 57.7205 365.291 59.7428 367.367 62.1007L368.436 61.1593C366.206 58.627 363.241 56.4833 359.504 54.916L358.953 56.2296ZM371.829 71.2532C372.46 74.5723 372.265 78.0822 371.303 81.5097L372.675 81.8944C373.691 78.2733 373.904 74.5403 373.228 70.987L371.829 71.2532ZM366.605 90.7352C364.552 93.3789 361.961 95.7524 358.881 97.6682L359.634 98.8778C362.858 96.8723 365.574 94.3848 367.73 91.6089L366.605 90.7352ZM349.259 101.628C346.078 102.376 342.601 102.714 338.853 102.54L338.787 103.963C342.662 104.143 346.271 103.794 349.585 103.015L349.259 101.628ZM328.486 100.861C325.325 100.003 322.022 98.8051 318.587 97.2228L317.991 98.5166C321.493 100.13 324.871 101.356 328.113 102.236L328.486 100.861ZM309.256 92.1449C306.437 90.3798 303.546 88.3635 300.588 86.0762L299.717 87.203C302.709 89.5173 305.639 91.5607 308.5 93.3522L309.256 92.1449ZM292.477 79.2578C291.173 78.0736 289.857 76.8375 288.53 75.5478L287.537 76.5691C288.875 77.8699 290.203 79.1172 291.52 80.3126L292.477 79.2578ZM288.643 75.689C287.68 74.1026 286.845 72.4044 286.141 70.6152L284.815 71.1367C285.547 72.9973 286.418 74.7686 287.425 76.4279L288.643 75.689ZM283.584 59.5743C283.249 55.9046 283.36 52.0786 283.939 48.2188L282.531 48.0075C281.935 51.9768 281.82 55.9172 282.166 59.7037L283.584 59.5743ZM286.878 37.2248C288.232 33.7591 289.989 30.3639 292.164 27.1313L290.983 26.3359C288.747 29.6572 286.942 33.1456 285.552 36.7067L286.878 37.2248ZM299.518 18.4337C302.177 15.9048 305.181 13.573 308.543 11.5036L307.796 10.2906C304.35 12.412 301.267 14.8044 298.536 17.4014L299.518 18.4337ZM318.781 6.49166C322.193 5.1974 325.869 4.13381 329.819 3.34126L329.539 1.94462C325.515 2.75202 321.763 3.83685 318.275 5.15977L318.781 6.49166ZM341.197 1.88647C344.831 1.66606 348.651 1.65091 352.662 1.86316L352.737 0.440659C348.675 0.225696 344.801 0.240769 341.111 0.464595L341.197 1.88647ZM364.133 3.03101C367.743 3.56574 371.485 4.27001 375.362 5.15635L375.679 3.76768C371.768 2.87351 367.99 2.16228 364.342 1.6219L364.133 3.03101ZM386.409 8.07528C389.95 9.1325 393.592 10.3322 397.336 11.6824L397.82 10.3423C394.052 8.98356 390.384 7.77544 386.816 6.71031L386.409 8.07528ZM408.22 15.917C411.612 17.3311 415.082 18.8623 418.629 20.5157L419.231 19.2246C415.667 17.5632 412.179 16.0241 408.768 14.6022L408.22 15.917ZM428.995 25.587C432.346 27.3016 435.76 29.1204 439.24 31.0473L439.93 29.8011C436.437 27.8669 433.009 26.0408 429.644 24.3189L428.995 25.587ZM449.152 36.7276C452.424 38.6649 455.751 40.6944 459.132 42.8187L459.89 41.6125C456.498 39.4817 453.161 37.4457 449.877 35.5018L449.152 36.7276ZM468.699 48.9886C471.872 51.0872 475.091 53.2666 478.356 55.5291L479.167 54.3583C475.894 52.0901 472.667 49.9048 469.484 47.8004L468.699 48.9886ZM487.704 62.1448C490.767 64.3567 493.868 66.6396 497.008 68.9951L497.863 67.8556C494.716 65.495 491.608 63.2071 488.538 60.99L487.704 62.1448ZM506.263 76.0612C509.209 78.3501 512.189 80.7012 515.202 83.1159L516.092 82.0043C513.074 79.5853 510.089 77.2297 507.136 74.9363L506.263 76.0612ZM524.339 90.5515C527.215 92.9264 530.12 95.3579 533.054 97.8468L533.975 96.7605C531.036 94.2676 528.127 91.8321 525.246 89.4531L524.339 90.5515ZM541.798 105.361C544.729 107.911 547.688 110.517 550.675 113.18L551.623 112.117C548.632 109.45 545.668 106.84 542.733 104.286L541.798 105.361ZM559.041 120.721C561.854 123.284 564.692 125.896 567.554 128.559L568.524 127.516C565.659 124.85 562.818 122.234 560.001 119.668L559.041 120.721ZM576.174 136.662C578.864 139.216 581.574 141.813 584.306 144.455L585.296 143.431C582.561 140.786 579.848 138.186 577.155 135.629L576.174 136.662ZM592.564 152.512C595.338 155.243 598.134 158.018 600.95 160.839L601.958 159.832C599.139 157.009 596.341 154.23 593.564 151.497L592.564 152.512ZM608.948 168.912C611.594 171.604 614.259 174.336 616.942 177.108L617.965 176.117C615.28 173.343 612.613 170.608 609.964 167.913L608.948 168.912ZM625.047 185.543C627.705 188.33 630.381 191.156 633.075 194.021L634.113 193.045C631.417 190.178 628.738 187.349 626.078 184.56L625.047 185.543ZM640.803 202.293C643.395 205.086 646.003 207.914 648.627 210.778L649.677 209.816C647.051 206.949 644.441 204.119 641.847 201.324L640.803 202.293ZM656.548 219.48C659.104 222.305 661.675 225.163 664.26 228.056L665.322 227.107C662.735 224.212 660.162 221.351 657.604 218.524L656.548 219.48ZM671.809 236.548C674.339 239.411 676.884 242.306 679.442 245.233L680.515 244.296C677.954 241.366 675.408 238.47 672.876 235.605L671.809 236.548ZM687.161 254.112C688.455 255.609 689.752 257.113 691.053 258.625L692.133 257.697C690.831 256.183 689.533 254.678 688.239 253.181L687.161 254.112ZM691.024 258.59C692.197 260.145 693.36 261.691 694.514 263.229L695.654 262.374C694.499 260.835 693.335 259.288 692.161 257.732L691.024 258.59ZM701.332 272.357C703.568 275.366 705.769 278.342 707.933 281.285L709.081 280.441C706.915 277.496 704.713 274.518 702.475 271.508L701.332 272.357ZM714.717 290.558C716.954 293.633 719.151 296.671 721.307 299.671L722.464 298.84C720.306 295.837 718.108 292.797 715.869 289.72L714.717 290.558ZM727.871 308.861C730.098 311.999 732.279 315.095 734.417 318.15L735.584 317.333C733.445 314.276 731.261 311.177 729.032 308.036L727.871 308.861ZM740.789 327.325C742.992 330.521 745.145 333.67 747.248 336.773L748.427 335.974C746.322 332.868 744.167 329.716 741.962 326.516L740.789 327.325ZM753.452 346.007C755.613 349.254 757.718 352.447 759.767 355.588L760.96 354.81C758.908 351.665 756.801 348.468 754.637 345.217L753.452 346.007ZM765.812 364.957C767.908 368.241 769.939 371.465 771.908 374.63L773.117 373.878C771.146 370.708 769.111 367.479 767.013 364.19L765.812 364.957ZM777.784 384.207C779.782 387.511 781.707 390.747 783.562 393.915L784.791 393.196C782.933 390.021 781.004 386.78 779.002 383.47L777.784 384.207ZM789.222 403.763C791.105 407.105 792.904 410.366 794.622 413.549L795.875 412.873C794.154 409.682 792.35 406.413 790.463 403.064L789.222 403.763ZM799.897 423.581C801.682 427.071 803.362 430.46 804.938 433.749L806.223 433.134C804.641 429.832 802.956 426.433 801.165 422.932L799.897 423.581ZM809.659 443.992C811.243 447.58 812.693 451.038 814.013 454.37L815.338 453.845C814.01 450.495 812.553 447.02 810.962 443.417L809.659 443.992ZM817.917 464.935C819.203 468.706 820.302 472.295 821.226 475.709L822.601 475.337C821.669 471.891 820.56 468.273 819.266 464.475L817.917 464.935ZM823.705 486.661C824.41 490.624 824.834 494.303 825.002 497.72L826.425 497.65C826.254 494.166 825.822 490.427 825.108 486.412L823.705 486.661ZM824.55 508.889C823.969 512.893 822.93 516.414 821.504 519.511L822.798 520.106C824.286 516.874 825.361 513.22 825.96 509.094L824.55 508.889ZM815.235 528.537C812.65 531.122 809.631 533.242 806.273 534.981L806.928 536.246C810.396 534.45 813.539 532.247 816.242 529.544L815.235 528.537ZM795.863 538.976C792.366 539.948 788.678 540.676 784.87 541.22L785.072 542.631C788.927 542.079 792.677 541.34 796.244 540.348L795.863 538.976Z" fill="white"/>
<g filter="url(#filter4_d_268_1897)">
<g clip-path="url(#clip3_268_1897)">
<rect x="440.79" y="239.365" width="135.729" height="125.183" rx="6.33337" fill="white" fill-opacity="0.6" shape-rendering="crispEdges"/>
<rect x="446.067" y="244.643" width="125.174" height="39.5836" rx="5.80559" fill="white"/>
<path d="M480.744 260.477H522.187M480.744 269.185H504.637" stroke="#DCDCDC" stroke-width="4.22225" stroke-linecap="round"/>
<path d="M555.594 258.893C553.492 258.893 551.788 261.019 551.788 263.643C551.788 266.262 553.496 268.393 555.594 268.393C557.696 268.393 559.4 266.266 559.4 263.643C559.4 261.023 557.693 258.893 555.594 258.893ZM557.57 264.373H555.374C555.355 264.373 555.336 264.364 555.323 264.347C555.309 264.329 555.301 264.306 555.301 264.282V260.445C555.301 260.421 555.309 260.398 555.323 260.381C555.336 260.364 555.355 260.354 555.374 260.354H555.814C555.833 260.354 555.852 260.364 555.865 260.381C555.879 260.398 555.887 260.421 555.887 260.445V263.643H557.57C557.59 263.643 557.608 263.652 557.622 263.669C557.636 263.686 557.643 263.71 557.643 263.734V264.282C557.643 264.306 557.636 264.329 557.622 264.347C557.608 264.364 557.59 264.373 557.57 264.373Z" fill="#85D592"/>
<rect x="446.067" y="291.615" width="125.174" height="39.5836" rx="5.80559" fill="white"/>
<path d="M480.744 307.448H522.187M480.744 316.157H504.637" stroke="#DCDCDC" stroke-width="4.22225" stroke-linecap="round"/>
<path d="M555.594 305.865C553.492 305.865 551.788 307.992 551.788 310.615C551.788 313.234 553.496 315.365 555.594 315.365C557.696 315.365 559.4 313.238 559.4 310.615C559.4 307.996 557.693 305.865 555.594 305.865ZM557.57 311.346H555.374C555.355 311.346 555.336 311.336 555.323 311.319C555.309 311.302 555.301 311.279 555.301 311.255V307.418C555.301 307.394 555.309 307.371 555.323 307.354C555.336 307.336 555.355 307.327 555.374 307.327H555.814C555.833 307.327 555.852 307.336 555.865 307.354C555.879 307.371 555.887 307.394 555.887 307.418V310.615H557.57C557.59 310.615 557.608 310.625 557.622 310.642C557.636 310.659 557.643 310.682 557.643 310.707V311.255C557.643 311.279 557.636 311.302 557.622 311.319C557.608 311.336 557.59 311.346 557.57 311.346Z" fill="#D7D7D7"/>
<rect x="446.067" y="338.588" width="125.174" height="39.5836" rx="5.80559" fill="white"/>
<path d="M480.744 353.895H522.187M480.744 362.603H504.637" stroke="#DCDCDC" stroke-width="4.22225" stroke-linecap="round"/>
<path d="M555.594 352.31C553.492 352.31 551.788 354.436 551.788 357.06C551.788 359.679 553.496 361.81 555.594 361.81C557.696 361.81 559.4 359.683 559.4 357.06C559.4 354.44 557.693 352.31 555.594 352.31ZM557.57 357.79H555.374C555.355 357.79 555.336 357.781 555.323 357.764C555.309 357.746 555.301 357.723 555.301 357.699V353.862C555.301 353.838 555.309 353.815 555.323 353.798C555.336 353.781 555.355 353.771 555.374 353.771H555.814C555.833 353.771 555.852 353.781 555.865 353.798C555.879 353.815 555.887 353.838 555.887 353.862V357.06H557.57C557.59 357.06 557.608 357.069 557.622 357.086C557.636 357.103 557.643 357.127 557.643 357.151V357.699C557.643 357.723 557.636 357.746 557.622 357.764C557.608 357.781 557.59 357.79 557.57 357.79Z" fill="#49BE5C"/>
</g>
</g>
<defs>
<filter id="filter0_f_268_1897" x="402.814" y="534.926" width="65.5173" height="65.5173" filterUnits="userSpaceOnUse" color-interpolation-filters="sRGB">
<feFlood flood-opacity="0" result="BackgroundImageFix"/>
<feBlend mode="normal" in="SourceGraphic" in2="BackgroundImageFix" result="shape"/>
<feGaussianBlur stdDeviation="5.89936" result="effect1_foregroundBlur_268_1897"/>
</filter>
<filter id="filter1_d_268_1897" x="659.836" y="494.698" width="101.056" height="101.056" filterUnits="userSpaceOnUse" color-interpolation-filters="sRGB">
<feFlood flood-opacity="0" result="BackgroundImageFix"/>
<feColorMatrix in="SourceAlpha" type="matrix" values="0 0 0 0 0 0 0 0 0 0 0 0 0 0 0 0 0 0 127 0" result="hardAlpha"/>
<feOffset dy="5.69796"/>
<feGaussianBlur stdDeviation="2.84898"/>
<feComposite in2="hardAlpha" operator="out"/>
<feColorMatrix type="matrix" values="0 0 0 0 0 0 0 0 0 0 0 0 0 0 0 0 0 0 0.25 0"/>
<feBlend mode="normal" in2="BackgroundImageFix" result="effect1_dropShadow_268_1897"/>
<feBlend mode="normal" in="SourceGraphic" in2="effect1_dropShadow_268_1897" result="shape"/>
</filter>
<filter id="filter2_d_268_1897" x="362.888" y="97.3613" width="101.056" height="101.056" filterUnits="userSpaceOnUse" color-interpolation-filters="sRGB">
<feFlood flood-opacity="0" result="BackgroundImageFix"/>
<feColorMatrix in="SourceAlpha" type="matrix" values="0 0 0 0 0 0 0 0 0 0 0 0 0 0 0 0 0 0 127 0" result="hardAlpha"/>
<feOffset dy="5.69796"/>
<feGaussianBlur stdDeviation="2.84898"/>
<feComposite in2="hardAlpha" operator="out"/>
<feColorMatrix type="matrix" values="0 0 0 0 0 0 0 0 0 0 0 0 0 0 0 0 0 0 0.25 0"/>
<feBlend mode="normal" in2="BackgroundImageFix" result="effect1_dropShadow_268_1897"/>
<feBlend mode="normal" in="SourceGraphic" in2="effect1_dropShadow_268_1897" result="shape"/>
</filter>
<filter id="filter3_d_268_1897" x="634.612" y="215.479" width="101.056" height="101.056" filterUnits="userSpaceOnUse" color-interpolation-filters="sRGB">
<feFlood flood-opacity="0" result="BackgroundImageFix"/>
<feColorMatrix in="SourceAlpha" type="matrix" values="0 0 0 0 0 0 0 0 0 0 0 0 0 0 0 0 0 0 127 0" result="hardAlpha"/>
<feOffset dy="5.69796"/>
<feGaussianBlur stdDeviation="2.84898"/>
<feComposite in2="hardAlpha" operator="out"/>
<feColorMatrix type="matrix" values="0 0 0 0 0 0 0 0 0 0 0 0 0 0 0 0 0 0 0.25 0"/>
<feBlend mode="normal" in2="BackgroundImageFix" result="effect1_dropShadow_268_1897"/>
<feBlend mode="normal" in="SourceGraphic" in2="effect1_dropShadow_268_1897" result="shape"/>
</filter>
<filter id="filter4_d_268_1897" x="359.512" y="201.893" width="245.508" height="234.961" filterUnits="userSpaceOnUse" color-interpolation-filters="sRGB">
<feFlood flood-opacity="0" result="BackgroundImageFix"/>
<feColorMatrix in="SourceAlpha" type="matrix" values="0 0 0 0 0 0 0 0 0 0 0 0 0 0 0 0 0 0 127 0" result="hardAlpha"/>
<feMorphology radius="2.11112" operator="dilate" in="SourceAlpha" result="effect1_dropShadow_268_1897"/>
<feOffset dx="-26.389" dy="17.4168"/>
<feGaussianBlur stdDeviation="26.389"/>
<feComposite in2="hardAlpha" operator="out"/>
<feColorMatrix type="matrix" values="0 0 0 0 0.384314 0 0 0 0 0.447059 0 0 0 0 0.564706 0 0 0 0.32 0"/>
<feBlend mode="normal" in2="BackgroundImageFix" result="effect1_dropShadow_268_1897"/>
<feBlend mode="normal" in="SourceGraphic" in2="effect1_dropShadow_268_1897" result="shape"/>
</filter>
<linearGradient id="paint0_linear_268_1897" x1="429.232" y1="123.9" x2="478.475" y2="1038.92" gradientUnits="userSpaceOnUse">
<stop stop-color="white"/>
<stop offset="1" stop-color="#C4C4C4" stop-opacity="0"/>
</linearGradient>
<linearGradient id="paint1_linear_268_1897" x1="355.232" y1="619.255" x2="348.749" y2="62.3995" gradientUnits="userSpaceOnUse">
<stop stop-color="white"/>
<stop offset="1" stop-color="#EEEEEE"/>
</linearGradient>
<linearGradient id="paint2_linear_268_1897" x1="353.988" y1="570.319" x2="352.15" y2="412.456" gradientUnits="userSpaceOnUse">
<stop stop-color="white"/>
<stop offset="1" stop-color="#EEEEEE"/>
</linearGradient>
<linearGradient id="paint3_linear_268_1897" x1="128.193" y1="454.997" x2="127.042" y2="356.117" gradientUnits="userSpaceOnUse">
<stop stop-color="white"/>
<stop offset="1" stop-color="#EEEEEE"/>
</linearGradient>
<linearGradient id="paint4_linear_268_1897" x1="189.534" y1="405.823" x2="188.241" y2="294.799" gradientUnits="userSpaceOnUse">
<stop stop-color="white"/>
<stop offset="1" stop-color="#EEEEEE"/>
</linearGradient>
<linearGradient id="paint5_linear_268_1897" x1="436.466" y1="612.147" x2="435.173" y2="501.123" gradientUnits="userSpaceOnUse">
<stop stop-color="white"/>
<stop offset="1" stop-color="#EEEEEE"/>
</linearGradient>
<linearGradient id="paint6_linear_268_1897" x1="705.983" y1="517.701" x2="744.382" y2="532.242" gradientUnits="userSpaceOnUse">
<stop stop-color="#20639B"/>
<stop offset="1" stop-color="#09B7C2"/>
</linearGradient>
<linearGradient id="paint7_linear_268_1897" x1="409.21" y1="119.203" x2="447.734" y2="133.058" gradientUnits="userSpaceOnUse">
<stop stop-color="#20639B"/>
<stop offset="1" stop-color="#09B7C2"/>
</linearGradient>
<linearGradient id="paint8_linear_268_1897" x1="415.611" y1="123.458" x2="431.568" y2="127.741" gradientUnits="userSpaceOnUse">
<stop stop-color="#20639B"/>
<stop offset="1" stop-color="#09B7C2"/>
</linearGradient>
<linearGradient id="paint9_linear_268_1897" x1="409.586" y1="123.884" x2="428.432" y2="130.212" gradientUnits="userSpaceOnUse">
<stop stop-color="#20639B"/>
<stop offset="1" stop-color="#09B7C2"/>
</linearGradient>
<linearGradient id="paint10_linear_268_1897" x1="684.719" y1="235.344" x2="695.831" y2="239.17" gradientUnits="userSpaceOnUse">
<stop stop-color="#20639B"/>
<stop offset="1" stop-color="#09B7C2"/>
</linearGradient>
<linearGradient id="paint11_linear_268_1897" x1="679.19" y1="260.87" x2="692.602" y2="263.641" gradientUnits="userSpaceOnUse">
<stop stop-color="#20639B"/>
<stop offset="1" stop-color="#09B7C2"/>
</linearGradient>
<linearGradient id="paint12_linear_268_1897" x1="692.728" y1="260.87" x2="679.316" y2="263.641" gradientUnits="userSpaceOnUse">
<stop stop-color="#20639B"/>
<stop offset="1" stop-color="#09B7C2"/>
</linearGradient>
<linearGradient id="paint13_linear_268_1897" x1="674.576" y1="250.449" x2="692.826" y2="258.445" gradientUnits="userSpaceOnUse">
<stop stop-color="#20639B"/>
<stop offset="1" stop-color="#09B7C2"/>
</linearGradient>
<linearGradient id="paint14_linear_268_1897" x1="697.342" y1="250.449" x2="679.092" y2="258.445" gradientUnits="userSpaceOnUse">
<stop stop-color="#20639B"/>
<stop offset="1" stop-color="#09B7C2"/>
</linearGradient>
<clipPath id="clip0_268_1897">
<rect width="589.498" height="392.999" fill="white" transform="translate(0 288.001)"/>
</clipPath>
<clipPath id="clip1_268_1897">
<rect width="47.0297" height="47.0297" fill="white" transform="translate(661.761 236.58)"/>
</clipPath>
<clipPath id="clip2_268_1897">
<rect width="54.1306" height="54.1306" fill="white" transform="translate(658.761 233.58)"/>
</clipPath>
<clipPath id="clip3_268_1897">
<rect x="440.79" y="239.365" width="135.729" height="125.183" rx="6.33337" fill="white"/>
</clipPath>
</defs>
</svg>
